<svg width="55" height="54" viewBox="0 0 55 54" fill="none" xmlns="http://www.w3.org/2000/svg">
<g opacity="0.7">
<path d="M53.2386 16.6937H36.2714V0.84375C36.2714 0.377789 35.894 0 35.4276 0H0.84375C0.377384 0 0 0.377789 0 0.84375V53.1562C0 53.6222 0.377384 54 0.84375 54H35.4276C35.894 54 36.2714 53.6222 36.2714 53.1562V37.3067L53.2386 37.3063C53.705 37.3063 54.0824 36.9285 54.0824 36.4625V17.5375C54.0824 17.0715 53.705 16.6937 53.2386 16.6937ZM36.2714 21.537H46.2505C46.5776 23.0284 47.751 24.2055 49.2391 24.5334V29.4666C47.751 29.7949 46.5776 30.972 46.2505 32.4634H36.2714V21.537ZM34.5839 52.3125H1.6875V1.6875H34.5839V52.3125ZM52.3949 35.6188L36.2714 35.6192V34.1509H47.0036C47.47 34.1509 47.8474 33.7731 47.8474 33.3071C47.8474 32.0695 48.8502 31.0626 50.0828 31.0626C50.5492 31.0626 50.9266 30.6848 50.9266 30.2189V23.7811C50.9266 23.3152 50.5492 22.9374 50.0828 22.9374C48.8502 22.9374 47.8474 21.9305 47.8474 20.6933C47.8474 20.2273 47.47 19.8495 47.0036 19.8495H36.2714V18.3812H52.3949V35.6188Z" fill="black"/>
<path d="M30.3648 3.375H5.90674C4.51092 3.375 3.37549 4.51043 3.37549 5.90625V16.2006C3.37549 17.5964 4.51092 18.7318 5.90674 18.7318H30.3648C31.7606 18.7318 32.896 17.5964 32.896 16.2006V5.90625C32.896 4.51043 31.7606 3.375 30.3648 3.375ZM31.2085 16.2006C31.2085 16.6657 30.8303 17.0443 30.3648 17.0443H5.90674C5.44119 17.0443 5.06299 16.6657 5.06299 16.2006V5.90625C5.06299 5.44112 5.44119 5.0625 5.90674 5.0625H30.3648C30.8303 5.0625 31.2085 5.44112 31.2085 5.90625V16.2006H31.2085Z" fill="black"/>
<path d="M32.0523 20.5413H4.21924C3.75287 20.5413 3.37549 20.919 3.37549 21.385V26.415C3.37549 26.8809 3.75287 27.2587 4.21924 27.2587H32.0523C32.5186 27.2587 32.896 26.8809 32.896 26.415V21.385C32.896 20.9191 32.5186 20.5413 32.0523 20.5413ZM31.2085 25.5712H5.06299V22.2288H31.2085V25.5712H31.2085Z" fill="black"/>
<path d="M21.1573 30.7212H18.7686C18.3022 30.7212 17.9248 31.099 17.9248 31.5649C17.9248 32.0309 18.3022 32.4087 18.7686 32.4087H21.1573C21.6236 32.4087 22.001 32.0309 22.001 31.5649C22.001 31.099 21.6236 30.7212 21.1573 30.7212Z" fill="black"/>
<path d="M26.501 30.7212H24.1123C23.6459 30.7212 23.2686 31.099 23.2686 31.5649C23.2686 32.0309 23.6459 32.4087 24.1123 32.4087H26.501C26.9674 32.4087 27.3448 32.0309 27.3448 31.5649C27.3448 31.099 26.9674 30.7212 26.501 30.7212Z" fill="black"/>
<path d="M31.8451 30.7212H29.4556C28.9892 30.7212 28.6118 31.099 28.6118 31.5649C28.6118 32.0309 28.9892 32.4087 29.4556 32.4087H31.8451C32.3115 32.4087 32.6888 32.0309 32.6888 31.5649C32.6888 31.099 32.3115 30.7212 31.8451 30.7212Z" fill="black"/>
<path d="M21.1573 35.5837H18.7686C18.3022 35.5837 17.9248 35.9615 17.9248 36.4275C17.9248 36.8935 18.3022 37.2712 18.7686 37.2712H21.1573C21.6236 37.2712 22.001 36.8935 22.001 36.4275C22.001 35.9615 21.6236 35.5837 21.1573 35.5837Z" fill="black"/>
<path d="M26.501 35.5837H24.1123C23.6459 35.5837 23.2686 35.9615 23.2686 36.4275C23.2686 36.8935 23.6459 37.2712 24.1123 37.2712H26.501C26.9674 37.2712 27.3448 36.8935 27.3448 36.4275C27.3448 35.9615 26.9674 35.5837 26.501 35.5837Z" fill="black"/>
<path d="M31.8451 35.5837H29.4556C28.9892 35.5837 28.6118 35.9615 28.6118 36.4275C28.6118 36.8935 28.9892 37.2712 29.4556 37.2712H31.8451C32.3115 37.2712 32.6888 36.8935 32.6888 36.4275C32.6888 35.9615 32.3115 35.5837 31.8451 35.5837Z" fill="black"/>
<path d="M21.1573 40.4468H18.7686C18.3022 40.4468 17.9248 40.8246 17.9248 41.2905C17.9248 41.7565 18.3022 42.1343 18.7686 42.1343H21.1573C21.6236 42.1343 22.001 41.7565 22.001 41.2905C22.001 40.8246 21.6236 40.4468 21.1573 40.4468Z" fill="black"/>
<path d="M26.501 40.4468H24.1123C23.6459 40.4468 23.2686 40.8246 23.2686 41.2905C23.2686 41.7565 23.6459 42.1343 24.1123 42.1343H26.501C26.9674 42.1343 27.3448 41.7565 27.3448 41.2905C27.3448 40.8246 26.9674 40.4468 26.501 40.4468Z" fill="black"/>
<path d="M31.8451 40.4468H29.4556C28.9892 40.4468 28.6118 40.8246 28.6118 41.2905C28.6118 41.7565 28.9892 42.1343 29.4556 42.1343H31.8451C32.3115 42.1343 32.6888 41.7565 32.6888 41.2905C32.6888 40.8246 32.3115 40.4468 31.8451 40.4468Z" fill="black"/>
<path d="M21.1573 45.3101H18.7686C18.3022 45.3101 17.9248 45.6878 17.9248 46.1538C17.9248 46.6198 18.3022 46.9976 18.7686 46.9976H21.1573C21.6236 46.9976 22.001 46.6198 22.001 46.1538C22.001 45.6878 21.6236 45.3101 21.1573 45.3101Z" fill="black"/>
<path d="M26.501 45.3101H24.1123C23.6459 45.3101 23.2686 45.6878 23.2686 46.1538C23.2686 46.6198 23.6459 46.9976 24.1123 46.9976H26.501C26.9674 46.9976 27.3448 46.6198 27.3448 46.1538C27.3448 45.6878 26.9674 45.3101 26.501 45.3101Z" fill="black"/>
<path d="M31.8451 45.3101H29.4556C28.9892 45.3101 28.6118 45.6878 28.6118 46.1538C28.6118 46.6198 28.9892 46.9976 29.4556 46.9976H31.8451C32.3115 46.9976 32.6888 46.6198 32.6888 46.1538C32.6888 45.6878 32.3115 45.3101 31.8451 45.3101Z" fill="black"/>
<path d="M13.2683 30.7214C12.8223 30.7214 6.39254 30.7214 6.55212 30.7214C4.79124 30.7214 3.37158 32.141 3.37158 33.9024C3.37158 35.4024 4.41875 36.6557 5.81796 36.9893V46.1537C5.81796 46.6196 6.19534 46.9974 6.66171 46.9974H13.167C13.6334 46.9974 14.0107 46.6196 14.0107 46.1537V36.9872C15.4749 36.6386 16.4497 35.3565 16.4497 33.9024C16.4497 32.1486 15.0226 30.7214 13.2683 30.7214ZM5.05908 33.9024C5.05908 33.336 5.36834 32.853 5.81796 32.5997V35.2026C5.3656 34.9455 5.05908 34.459 5.05908 33.9024ZM12.3232 45.3099H7.50546V36.2396V32.4089H12.3232V36.2396V45.3099ZM14.0107 35.2002V32.6067C14.4598 32.8646 14.7622 33.3487 14.7622 33.9024C14.7622 34.4628 14.459 34.9436 14.0107 35.2002Z" fill="black"/>
</g>
</svg>
