<svg width="227" height="31" viewBox="0 0 227 31" fill="none" xmlns="http://www.w3.org/2000/svg">
<path d="M23.1957 23.0489H18.8438L21.5806 6.26904H25.9326L23.1957 23.0489Z" fill="#4D4D4D"/>
<path d="M15.1647 6.26996L10.9921 17.8005L10.4986 15.3329L9.01804 7.75054C9.01804 7.75054 8.83858 6.2251 6.95421 6.2251H0.0897317L0 6.53916C0 6.53916 2.1087 6.98782 4.57632 8.46839L8.38992 23.0498H12.9214L19.8756 6.26996H15.1647Z" fill="#4D4D4D"/>
<path d="M49.4871 23.0489H53.4802L49.9807 6.26904H46.4811C44.8659 6.26904 44.4622 7.52529 44.4622 7.52529L38.0015 23.0489H42.5329L43.4302 20.5364H48.9936L49.4871 23.0489ZM44.6865 17.0817L46.9746 10.8005L48.2758 17.0817H44.6865Z" fill="#4D4D4D"/>
<path d="M38.3155 10.3071L38.9437 6.71785C38.9437 6.71785 37.0144 6 34.9955 6C32.8419 6 27.6823 6.94218 27.6823 11.5634C27.6823 15.9154 33.7392 15.9602 33.7392 18.2484C33.7392 20.5365 28.3105 20.1328 26.5158 18.697L25.8877 22.4658C25.8877 22.4658 27.8169 23.408 30.8229 23.408C33.7841 23.408 38.3155 21.8825 38.3155 17.6651C38.3155 13.3131 32.2138 12.9093 32.2138 10.9801C32.2138 9.00601 36.4312 9.27521 38.3155 10.3071Z" fill="#4D4D4D"/>
<path d="M10.4986 15.2873L9.01804 7.74981C9.01804 7.74981 8.83858 6.22437 6.95421 6.22437H0.0897318L0 6.53843C0 6.53843 3.32007 7.21141 6.46069 9.81364C9.51157 12.2364 10.4986 15.2873 10.4986 15.2873Z" fill="#4D4D4D"/>
<path d="M91.1971 30.645V28.602C91.1971 27.8282 90.7173 27.3174 89.9125 27.3174C89.5101 27.3174 89.0612 27.4567 88.7517 27.8901C88.5195 27.5186 88.179 27.3174 87.6683 27.3174C87.3278 27.3174 86.9873 27.4258 86.7242 27.7972V27.3948H86.0122V30.645H86.7242V28.8497C86.7242 28.277 87.0337 27.9984 87.498 27.9984C87.9623 27.9984 88.21 28.308 88.21 28.8497V30.645H88.9219V28.8497C88.9219 28.277 89.2624 27.9984 89.6958 27.9984C90.1756 27.9984 90.4077 28.308 90.4077 28.8497V30.645H91.1971ZM101.768 27.3793H100.607V26.3888H99.8953V27.3793H99.2452V28.0294H99.8953V29.5307C99.8953 30.2736 100.205 30.7224 101.01 30.7224C101.319 30.7224 101.66 30.6141 101.892 30.4903L101.691 29.8712C101.489 30.0105 101.242 30.0414 101.072 30.0414C100.731 30.0414 100.592 29.8402 100.592 29.4997V28.0449H101.753V27.3793H101.768ZM107.82 27.3174C107.417 27.3174 107.139 27.5186 106.968 27.7972V27.3948H106.256V30.645H106.968V28.8032C106.968 28.2615 107.201 27.952 107.649 27.952C107.789 27.952 107.959 27.9829 108.098 28.0139L108.299 27.3329C108.16 27.3174 107.959 27.3174 107.82 27.3174ZM98.6726 27.6579C98.3321 27.4258 97.8523 27.3174 97.3415 27.3174C96.5212 27.3174 95.9795 27.7198 95.9795 28.3699C95.9795 28.9116 96.382 29.2211 97.0939 29.314L97.4344 29.3449C97.8059 29.4069 98.0071 29.5152 98.0071 29.6854C98.0071 29.9176 97.7285 30.0879 97.2642 30.0879C96.7998 30.0879 96.4129 29.9176 96.1807 29.7474L95.8403 30.2891C96.2117 30.5676 96.7225 30.6915 97.2332 30.6915C98.1773 30.6915 98.7345 30.2426 98.7345 29.639C98.7345 29.0664 98.2857 28.7568 97.6201 28.6485L97.2796 28.6175C96.9701 28.5866 96.7379 28.5092 96.7379 28.308C96.7379 28.0758 96.9701 27.9365 97.357 27.9365C97.7594 27.9365 98.1773 28.1068 98.3785 28.2151L98.6726 27.6579ZM117.632 27.3174C117.23 27.3174 116.951 27.5186 116.781 27.7972V27.3948H116.069V30.645H116.781V28.8032C116.781 28.2615 117.013 27.952 117.462 27.952C117.601 27.952 117.771 27.9829 117.911 28.0139L118.112 27.3329C117.973 27.3174 117.771 27.3174 117.632 27.3174ZM108.532 29.0199C108.532 30.0105 109.213 30.7224 110.265 30.7224C110.745 30.7224 111.085 30.6141 111.426 30.351L111.085 29.7783C110.807 29.9795 110.544 30.0879 110.234 30.0879C109.661 30.0879 109.244 29.6854 109.244 29.0354C109.244 28.4163 109.646 28.0139 110.234 27.9829C110.544 27.9829 110.807 28.0913 111.085 28.2925L111.426 27.7198C111.085 27.4412 110.745 27.3484 110.265 27.3484C109.213 27.3174 108.532 28.0294 108.532 29.0199ZM115.125 29.0199V27.3948H114.413V27.7972C114.181 27.4877 113.84 27.3174 113.391 27.3174C112.478 27.3174 111.766 28.0294 111.766 29.0199C111.766 30.0105 112.478 30.7224 113.391 30.7224C113.871 30.7224 114.212 30.5522 114.413 30.2426V30.645H115.125V29.0199ZM112.509 29.0199C112.509 28.4473 112.881 27.9675 113.5 27.9675C114.072 27.9675 114.49 28.4163 114.49 29.0199C114.49 29.5926 114.088 30.0724 113.5 30.0724C112.881 30.0414 112.509 29.5926 112.509 29.0199ZM103.981 27.3174C103.037 27.3174 102.356 27.9984 102.356 29.0199C102.356 30.0414 103.037 30.7224 104.028 30.7224C104.508 30.7224 104.972 30.5831 105.359 30.2736L105.018 29.7628C104.74 29.964 104.399 30.1033 104.074 30.1033C103.625 30.1033 103.192 29.9021 103.084 29.3295H105.498V29.0509C105.514 27.9984 104.894 27.3174 103.981 27.3174ZM103.981 27.921C104.43 27.921 104.724 28.1996 104.802 28.6949H103.099C103.161 28.2615 103.471 27.921 103.981 27.921ZM121.687 29.0199V26.0947H120.975V27.7972C120.743 27.4877 120.403 27.3174 119.954 27.3174C119.041 27.3174 118.329 28.0294 118.329 29.0199C118.329 30.0105 119.041 30.7224 119.954 30.7224C120.434 30.7224 120.774 30.5522 120.975 30.2426V30.645H121.687V29.0199ZM119.056 29.0199C119.056 28.4473 119.428 27.9675 120.047 27.9675C120.619 27.9675 121.037 28.4163 121.037 29.0199C121.037 29.5926 120.635 30.0724 120.047 30.0724C119.443 30.0414 119.056 29.5926 119.056 29.0199ZM95.2057 29.0199V27.3948H94.4937V27.7972C94.2616 27.4877 93.9211 27.3174 93.4722 27.3174C92.5591 27.3174 91.8471 28.0294 91.8471 29.0199C91.8471 30.0105 92.5591 30.7224 93.4722 30.7224C93.952 30.7224 94.2925 30.5522 94.4937 30.2426V30.645H95.2057V29.0199ZM92.5591 29.0199C92.5591 28.4473 92.9305 27.9675 93.5496 27.9675C94.1223 27.9675 94.5402 28.4163 94.5402 29.0199C94.5402 29.5926 94.1378 30.0724 93.5496 30.0724C92.9305 30.0414 92.5591 29.5926 92.5591 29.0199Z" fill="#4D4D4D"/>
<path d="M109.151 2.61572H98.4404V21.8539H109.151V2.61572Z" fill="#FF5F00"/>
<path d="M99.1213 12.227C99.1213 8.32675 100.963 4.85985 103.78 2.61565C101.706 0.990543 99.0903 0 96.227 0C89.4635 0 84 5.46346 84 12.227C84 18.9906 89.4635 24.454 96.227 24.454C99.0748 24.454 101.69 23.4635 103.764 21.8384C100.948 19.6406 99.1213 16.1428 99.1213 12.227Z" fill="#EB001B"/>
<path d="M123.575 12.227C123.575 18.9906 118.112 24.454 111.348 24.454C108.501 24.454 105.885 23.4635 103.811 21.8384C106.659 19.5942 108.47 16.1273 108.47 12.227C108.47 8.32675 106.628 4.85985 103.811 2.61565C105.885 0.990543 108.501 0 111.348 0C118.112 0 123.575 5.5099 123.575 12.227Z" fill="#F79E1B"/>
<path d="M160.509 8.50927L159.125 5.1265L157.742 8.50927H160.509ZM191.134 7.17666C190.852 7.35605 190.519 7.35605 190.134 7.35605H187.674V5.45965H190.185C190.544 5.45965 190.903 5.48528 191.159 5.61341C191.415 5.74155 191.595 5.99782 191.595 6.3566C191.544 6.741 191.39 7.0229 191.134 7.17666ZM208.739 8.50927L207.33 5.1265L205.92 8.50927H208.739ZM175.937 12.1739H173.861V5.51091L170.914 12.1739H169.12L166.173 5.51091V12.1739H162.021L161.252 10.2775H157.024L156.23 12.1739H154.026L157.665 3.69139H160.689L164.123 11.7383V3.69139H167.429L170.094 9.45747L172.528 3.69139H175.911L175.937 12.1739ZM184.214 12.1739H177.449V3.69139H184.24V5.45965H179.473V6.99727H184.112V8.73991H179.473V10.4313H184.214V12.1739ZM193.799 5.97219C193.799 7.33043 192.902 8.02236 192.364 8.22737C192.799 8.40676 193.184 8.68866 193.363 8.94493C193.645 9.35496 193.696 9.73937 193.696 10.5082V12.1739H191.646V11.0976C191.646 10.5851 191.697 9.84188 191.313 9.43184C191.005 9.12432 190.57 9.07306 189.827 9.07306H187.648V12.1739H185.624V3.69139H190.288C191.313 3.69139 192.082 3.71701 192.748 4.10142C193.414 4.4602 193.799 5.02399 193.799 5.97219ZM197.053 12.1739H194.978V3.69139H197.053V12.1739ZM221.092 12.1739H218.221L214.377 5.7928V12.1739H210.251L209.457 10.2775H205.228L204.46 12.1739H202.076C201.077 12.1739 199.847 11.9433 199.129 11.2257C198.412 10.5082 198.053 9.53435 198.053 7.9711C198.053 6.71538 198.284 5.56216 199.155 4.63959C199.821 3.97328 200.846 3.64013 202.23 3.64013H204.203V5.45965H202.281C201.538 5.45965 201.128 5.56216 200.718 5.97219C200.359 6.33097 200.129 6.99727 200.129 7.89422C200.129 8.81679 200.308 9.45747 200.692 9.89313C201 10.2263 201.564 10.3288 202.102 10.3288H203.025L205.895 3.64013H208.944L212.378 11.687V3.69139H215.479L219.041 9.61123V3.69139H221.117V12.1739H221.092ZM154 13.8397H157.46L158.254 11.9433H159.997L160.766 13.8397H167.582V12.4046L168.197 13.8653H171.734L172.349 12.4046V13.8653H189.314V10.7645H189.647C189.878 10.7645 189.955 10.7901 189.955 11.1745V13.8653H198.719V13.1478C199.437 13.5322 200.539 13.8653 201.974 13.8653H205.664L206.459 11.9689H208.201L208.97 13.8653H216.094V12.0714L217.171 13.8653H222.86V2H217.222V3.40949L216.453 2H210.661V3.40949L209.944 2H202.128C200.821 2 199.667 2.17939 198.745 2.69193V2H193.338V2.69193C192.748 2.17939 191.928 2 191.031 2H171.324L169.991 5.04962L168.659 2H162.431V3.40949L161.765 2H156.46L154 7.63795V13.8397Z" fill="#4D4D4D"/>
<path d="M226.243 20.1183H222.553C222.194 20.1183 221.937 20.144 221.732 20.2721C221.527 20.4002 221.425 20.6052 221.425 20.8871C221.425 21.2203 221.604 21.4253 221.861 21.5278C222.066 21.6047 222.296 21.6303 222.655 21.6303L223.757 21.656C224.859 21.6816 225.602 21.8866 226.063 22.3479C226.14 22.4248 226.192 22.476 226.243 22.5529V20.1183ZM226.243 25.7307C225.756 26.4482 224.782 26.807 223.475 26.807H219.554V24.9875H223.449C223.834 24.9875 224.116 24.9362 224.27 24.7825C224.423 24.6543 224.5 24.4493 224.5 24.2187C224.5 23.9624 224.398 23.783 224.244 23.6549C224.09 23.5267 223.885 23.4755 223.526 23.4755C221.63 23.3986 219.247 23.5267 219.247 20.8359C219.247 19.6058 220.041 18.2988 222.168 18.2988H226.217V16.6074H222.45C221.322 16.6074 220.502 16.8893 219.913 17.2994V16.6074H214.352C213.455 16.6074 212.43 16.8381 211.917 17.2994V16.6074H202V17.2994C201.205 16.7356 199.873 16.6074 199.258 16.6074H192.697V17.2994C192.082 16.6843 190.672 16.6074 189.827 16.6074H182.497L180.832 18.4269L179.32 16.6074H168.377V28.4727H179.115L180.832 26.6276L182.472 28.4727H189.084V25.705H189.724C190.596 25.7307 191.646 25.6794 192.543 25.295V28.4984H198.002V25.3975H198.258C198.591 25.3975 198.617 25.4231 198.617 25.7563V28.4984H215.249C216.3 28.4984 217.402 28.2165 218.017 27.7296V28.4984H223.27C224.372 28.4984 225.423 28.3446 226.243 27.9602V25.7307ZM218.145 22.3223C218.529 22.7323 218.76 23.2448 218.76 24.1161C218.76 25.9357 217.607 26.807 215.582 26.807H211.635V24.9875H215.582C215.966 24.9875 216.248 24.9362 216.402 24.7825C216.53 24.6543 216.633 24.4493 216.633 24.2187C216.633 23.9624 216.53 23.783 216.376 23.6549C216.223 23.5267 216.018 23.4755 215.659 23.4755C213.762 23.3986 211.379 23.5267 211.379 20.8359C211.379 19.6058 212.148 18.2988 214.275 18.2988H218.35V20.1183H214.634C214.275 20.1183 214.019 20.144 213.814 20.2721C213.583 20.4002 213.506 20.6052 213.506 20.8871C213.506 21.2203 213.686 21.4253 213.942 21.5278C214.147 21.6047 214.378 21.6303 214.736 21.6303L215.838 21.656C216.94 21.656 217.683 21.861 218.145 22.3223ZM199.821 21.8097C199.539 21.9635 199.206 21.9891 198.822 21.9891H196.362V20.0927H198.873C199.232 20.0927 199.591 20.0927 199.847 20.2465C200.103 20.3746 200.257 20.6565 200.257 21.0153C200.257 21.3484 200.103 21.6303 199.821 21.8097ZM201.051 22.8604C201.513 23.0398 201.872 23.3217 202.051 23.578C202.333 23.988 202.384 24.3724 202.384 25.1412V26.8326H200.334V25.7819C200.334 25.2694 200.385 24.5262 200.001 24.1161C199.693 23.8086 199.258 23.7317 198.514 23.7317H196.336V26.8326H194.286V18.2988H198.976C200.001 18.2988 200.744 18.3501 201.41 18.7088C202.051 19.0932 202.461 19.6314 202.461 20.6052C202.487 21.9635 201.59 22.6554 201.051 22.8604ZM203.614 18.2988H210.38V20.0671H205.613V21.6047H210.252V23.3473H205.613V25.0387H210.38V26.807H203.614V18.2988ZM189.929 22.2197H187.315V20.0671H189.955C190.698 20.0671 191.185 20.3746 191.185 21.1178C191.185 21.8353 190.698 22.2197 189.929 22.2197ZM185.265 26.0382L182.139 22.5785L185.265 19.2214V26.0382ZM177.218 25.0387H172.221V23.3473H176.68V21.6047H172.221V20.0671H177.321L179.55 22.5529L177.218 25.0387ZM193.363 21.1178C193.363 23.4755 191.595 23.9624 189.827 23.9624H187.29V26.807H183.343L180.832 23.988L178.243 26.807H170.196V18.2988H178.372L180.883 21.0922L183.471 18.2988H189.955C191.544 18.2988 193.363 18.7601 193.363 21.1178Z" fill="#4D4D4D"/>
</svg>
